%FSLAX34Y34*%
%MOMM*%
%LNCOPPER_TOP*%
G71*
G01*
%ADD10C, 6.500*%
%ADD11C, 4.000*%
%ADD12C, 2.159*%
%ADD13C, 2.700*%
%ADD14C, 1.900*%
%ADD15C, 2.127*%
%ADD16C, 6.000*%
%ADD17C, 2.800*%
%ADD18C, 3.500*%
%ADD19R, 2.600X3.700*%
%ADD20C, 2.600*%
%ADD21C, 3.800*%
%ADD22C, 3.000*%
%ADD23C, 4.800*%
%ADD24C, 2.476*%
%ADD25C, 0.500*%
%ADD26R, 2.200X2.500*%
%ADD27R, 3.400X3.700*%
%ADD28C, 0.200*%
%ADD29R, 5.400X5.700*%
%ADD30R, 1.200X2.100*%
%ADD31R, 2.800X3.700*%
%ADD32C, 3.159*%
%ADD33R, 3.300X3.000*%
%ADD34R, 5.100X4.800*%
%ADD35R, 2.500X2.200*%
%ADD36R, 3.700X3.400*%
%ADD37R, 3.900X3.600*%
%ADD38C, 4.500*%
%ADD39C, 2.000*%
%ADD40C, 0.159*%
%ADD41C, 0.700*%
%ADD42C, 0.127*%
%ADD43C, 0.800*%
%ADD44C, 1.500*%
%ADD45C, 1.800*%
%ADD46R, 0.600X1.700*%
%ADD47C, 0.600*%
%ADD48C, 1.000*%
%ADD49C, 0.476*%
%ADD50R, 1.400X1.700*%
%ADD51R, 0.800X1.700*%
%ADD52R, 1.300X1.000*%
%ADD53R, 1.700X1.400*%
%LPD*%
G36*
X0Y0D02*
X650000Y0D01*
X650000Y-560000D01*
X0Y-560000D01*
X0Y0D01*
G37*
%LPC*%
X36512Y-38100D02*
G54D10*
D03*
X36512Y-528638D02*
G54D10*
D03*
X616512Y-38100D02*
G54D10*
D03*
X617538Y-528638D02*
G54D10*
D03*
G36*
X65725Y-30800D02*
X105725Y-30800D01*
X105725Y-70800D01*
X65725Y-70800D01*
X65725Y-30800D01*
G37*
X111125Y-50800D02*
G54D11*
D03*
X136525Y-50800D02*
G54D11*
D03*
X161925Y-50800D02*
G54D11*
D03*
X187325Y-50800D02*
G54D11*
D03*
X212725Y-50800D02*
G54D11*
D03*
X238125Y-50800D02*
G54D11*
D03*
X263525Y-50800D02*
G54D11*
D03*
X288925Y-50800D02*
G54D11*
D03*
X314325Y-50800D02*
G54D11*
D03*
X339725Y-50800D02*
G54D11*
D03*
X365125Y-50800D02*
G54D11*
D03*
X390525Y-50800D02*
G54D11*
D03*
X415925Y-50800D02*
G54D11*
D03*
X441325Y-50800D02*
G54D11*
D03*
X466725Y-50800D02*
G54D11*
D03*
X492125Y-50800D02*
G54D11*
D03*
X517525Y-50800D02*
G54D11*
D03*
X542925Y-50800D02*
G54D11*
D03*
X568325Y-50800D02*
G54D11*
D03*
X85725Y-25400D02*
G54D11*
D03*
X111125Y-25400D02*
G54D11*
D03*
X136525Y-25400D02*
G54D11*
D03*
X161925Y-25400D02*
G54D11*
D03*
X187325Y-25400D02*
G54D11*
D03*
X212725Y-25400D02*
G54D11*
D03*
X238125Y-25400D02*
G54D11*
D03*
X263525Y-25400D02*
G54D11*
D03*
X288925Y-25400D02*
G54D11*
D03*
X314325Y-25400D02*
G54D11*
D03*
X339725Y-25400D02*
G54D11*
D03*
X365125Y-25400D02*
G54D11*
D03*
X390525Y-25400D02*
G54D11*
D03*
X415925Y-25400D02*
G54D11*
D03*
X441325Y-25400D02*
G54D11*
D03*
X466725Y-25400D02*
G54D11*
D03*
X492125Y-25400D02*
G54D11*
D03*
X517525Y-25400D02*
G54D11*
D03*
X542925Y-25400D02*
G54D11*
D03*
X568325Y-25400D02*
G54D11*
D03*
G54D12*
X68375Y-57894D02*
X71708Y-54561D01*
X71708Y-63450D01*
G36*
X400000Y-360000D02*
X440000Y-360000D01*
X440000Y-400000D01*
X400000Y-400000D01*
X400000Y-360000D01*
G37*
G36*
X570550Y-189550D02*
X610550Y-189550D01*
X610550Y-229550D01*
X570550Y-229550D01*
X570550Y-189550D01*
G37*
G36*
X545150Y-189550D02*
X585150Y-189550D01*
X585150Y-229550D01*
X545150Y-229550D01*
X545150Y-189550D01*
G37*
G36*
X519750Y-189550D02*
X559750Y-189550D01*
X559750Y-229550D01*
X519750Y-229550D01*
X519750Y-189550D01*
G37*
X445000Y-380000D02*
G54D11*
D03*
G36*
X540350Y-153000D02*
X488350Y-153000D01*
X488350Y-101000D01*
X540350Y-101000D01*
X540350Y-153000D01*
G37*
G36*
X195900Y-296500D02*
X207600Y-284800D01*
X224200Y-284800D01*
X235900Y-296500D01*
X235900Y-313100D01*
X224200Y-324800D01*
X207600Y-324800D01*
X195900Y-313100D01*
X195900Y-296500D01*
G37*
G36*
X195900Y-347300D02*
X207600Y-335600D01*
X224200Y-335600D01*
X235900Y-347300D01*
X235900Y-363900D01*
X224200Y-375600D01*
X207600Y-375600D01*
X195900Y-363900D01*
X195900Y-347300D01*
G37*
G36*
X195900Y-398100D02*
X207600Y-386400D01*
X224200Y-386400D01*
X235900Y-398100D01*
X235900Y-414700D01*
X224200Y-426400D01*
X207600Y-426400D01*
X195900Y-414700D01*
X195900Y-398100D01*
G37*
G36*
X195900Y-423500D02*
X207600Y-411800D01*
X224200Y-411800D01*
X235900Y-423500D01*
X235900Y-440100D01*
X224200Y-451800D01*
X207600Y-451800D01*
X195900Y-440100D01*
X195900Y-423500D01*
G37*
G36*
X195900Y-448900D02*
X207600Y-437200D01*
X224200Y-437200D01*
X235900Y-448900D01*
X235900Y-465500D01*
X224200Y-477200D01*
X207600Y-477200D01*
X195900Y-465500D01*
X195900Y-448900D01*
G37*
G36*
X195900Y-259400D02*
X235900Y-259400D01*
X235900Y-299400D01*
X195900Y-299400D01*
X195900Y-259400D01*
G37*
G36*
X195900Y-321900D02*
X207600Y-310200D01*
X224200Y-310200D01*
X235900Y-321900D01*
X235900Y-338500D01*
X224200Y-350200D01*
X207600Y-350200D01*
X195900Y-338500D01*
X195900Y-321900D01*
G37*
G54D13*
X120650Y-317500D02*
X120650Y-279400D01*
X215900Y-279400D01*
G54D13*
X107950Y-317500D02*
X107950Y-260350D01*
X254000Y-260350D01*
X254000Y-304800D01*
X215900Y-304800D01*
G54D13*
X95250Y-317500D02*
X95250Y-298450D01*
X44450Y-298450D01*
G54D13*
X133350Y-317500D02*
X133350Y-336550D01*
X79375Y-336550D01*
G54D13*
X215900Y-355600D02*
X190500Y-355600D01*
X171450Y-336550D01*
X133350Y-336550D01*
G54D14*
X133350Y-381000D02*
X133350Y-349250D01*
X44450Y-349250D01*
G54D13*
X120650Y-381000D02*
X120650Y-400050D01*
X127000Y-406400D01*
X152400Y-406400D01*
G54D13*
X120650Y-381000D02*
X120650Y-361950D01*
X79375Y-361950D01*
X79375Y-374650D01*
X44450Y-374650D01*
G54D13*
X107950Y-381000D02*
X107950Y-412750D01*
X127000Y-431800D01*
X155575Y-431800D01*
G54D13*
X44450Y-400050D02*
X79375Y-400050D01*
X79375Y-419100D01*
G54D13*
X187325Y-431800D02*
X215900Y-431800D01*
G54D13*
X187325Y-457200D02*
X215900Y-457200D01*
G54D13*
X69850Y-282575D02*
X69850Y-263525D01*
X95250Y-263525D01*
G54D13*
X95250Y-381000D02*
X95250Y-457200D01*
G54D13*
X184150Y-406400D02*
X215900Y-406400D01*
G54D15*
X157554Y-297117D02*
X158088Y-298006D01*
X159154Y-298450D01*
X160221Y-298450D01*
X161288Y-298006D01*
X161821Y-297117D01*
X161821Y-294895D01*
X161821Y-294450D01*
X160221Y-295339D01*
X159154Y-295339D01*
X158088Y-294895D01*
X157554Y-294006D01*
X157554Y-292672D01*
X158088Y-291783D01*
X159154Y-291339D01*
X160221Y-291339D01*
X161288Y-291783D01*
X161821Y-292672D01*
X161821Y-294895D01*
G54D15*
X155065Y-298450D02*
X150798Y-298450D01*
X151332Y-297561D01*
X152398Y-296228D01*
X153465Y-294450D01*
X153998Y-293117D01*
X153998Y-291339D01*
G54D15*
X144042Y-298450D02*
X148309Y-298450D01*
X148309Y-295339D01*
X147776Y-295339D01*
X146709Y-295783D01*
X145642Y-295783D01*
X144576Y-295339D01*
X144042Y-294450D01*
X144042Y-292672D01*
X144576Y-291783D01*
X145642Y-291339D01*
X146709Y-291339D01*
X147776Y-291783D01*
X148309Y-292672D01*
G54D15*
X138353Y-295339D02*
X138353Y-291339D01*
G54D15*
X138353Y-292228D02*
X138886Y-291517D01*
X139953Y-291339D01*
X141020Y-291517D01*
X141553Y-292228D01*
X141553Y-295339D01*
G54D15*
X135864Y-291339D02*
X135864Y-295339D01*
G54D15*
X135864Y-294450D02*
X135331Y-295072D01*
X134264Y-295339D01*
X133197Y-295072D01*
X132664Y-294450D01*
X132664Y-291339D01*
G54D15*
X130175Y-291339D02*
X130175Y-295339D01*
G54D15*
X130175Y-296672D02*
X130175Y-296672D01*
G54D13*
X44450Y-323850D02*
X79375Y-323850D01*
X79375Y-336550D01*
X177800Y-304800D02*
G54D16*
D03*
G54D17*
X215900Y-330200D02*
X190500Y-330200D01*
X177800Y-317500D01*
X177800Y-304800D01*
G54D18*
X323850Y-431800D02*
X393700Y-431800D01*
X355600Y-431800D02*
G54D19*
D03*
X342900Y-431800D02*
G54D19*
D03*
X330200Y-431800D02*
G54D19*
D03*
X317500Y-431800D02*
G54D19*
D03*
X355600Y-368300D02*
G54D19*
D03*
X342900Y-368300D02*
G54D19*
D03*
X330200Y-368300D02*
G54D19*
D03*
X317500Y-368300D02*
G54D19*
D03*
G54D20*
X355600Y-368300D02*
X330200Y-368300D01*
G54D20*
X355600Y-431800D02*
X317500Y-431800D01*
G54D18*
X336550Y-368300D02*
X381000Y-368300D01*
X393700Y-381000D01*
X419100Y-381000D01*
G54D13*
X317500Y-368300D02*
X304800Y-368300D01*
X304800Y-304800D01*
X200025Y-158750D02*
G54D11*
D03*
X200025Y-184150D02*
G54D11*
D03*
G54D13*
X155575Y-457200D02*
X53975Y-457200D01*
G54D13*
X161925Y-50800D02*
X161925Y-114300D01*
X241300Y-114300D01*
X241300Y-215900D01*
G54D21*
X342900Y-368300D02*
X342900Y-400050D01*
X279400Y-400050D01*
X279400Y-381000D01*
G54D17*
X215900Y-355600D02*
X279400Y-355600D01*
G54D17*
X200025Y-158750D02*
X19050Y-158750D01*
X19050Y-457200D01*
X28575Y-457200D01*
G54D13*
X241300Y-279400D02*
X215900Y-279400D01*
X279400Y-355600D02*
G54D11*
D03*
X279400Y-381000D02*
G54D11*
D03*
G54D13*
X269875Y-279400D02*
X304800Y-279400D01*
X304800Y-279400D02*
G54D11*
D03*
X304800Y-304800D02*
G54D11*
D03*
G54D13*
X44450Y-298450D02*
X44450Y-241300D01*
X69850Y-241300D02*
G54D11*
D03*
X44450Y-241300D02*
G54D11*
D03*
G54D13*
X200025Y-184150D02*
X203200Y-184150D01*
G54D21*
X346075Y-365125D02*
X346075Y-187325D01*
X288925Y-133350D02*
G54D11*
D03*
X200025Y-133350D02*
G54D11*
D03*
G54D22*
X200025Y-133350D02*
X219075Y-133350D01*
X219075Y-133350D02*
G54D11*
D03*
X241300Y-215900D02*
G54D11*
D03*
X241300Y-241300D02*
G54D11*
D03*
G54D13*
X241300Y-241300D02*
X241300Y-260350D01*
X263525Y-184150D02*
G54D11*
D03*
X219075Y-184150D02*
G54D11*
D03*
G54D22*
X200025Y-184150D02*
X219075Y-184150D01*
X111125Y-88900D02*
G54D11*
D03*
X85725Y-98425D02*
G54D11*
D03*
G54D17*
X60325Y-98425D02*
X60325Y-158750D01*
G54D17*
X111125Y-88900D02*
X111125Y-50800D01*
G54D17*
X136525Y-88900D02*
X136525Y-50800D01*
G54D21*
X393700Y-485775D02*
X393700Y-431800D01*
X622300Y-209550D02*
G54D11*
D03*
X136525Y-88900D02*
G54D11*
D03*
X85725Y-76200D02*
G54D11*
D03*
X212725Y-76200D02*
G54D11*
D03*
G54D17*
X212725Y-50800D02*
X212725Y-76200D01*
X60325Y-98425D02*
G54D11*
D03*
G54D17*
X85725Y-76200D02*
X85725Y-98425D01*
G36*
X372075Y-161325D02*
X372075Y-213325D01*
X320075Y-213325D01*
X320075Y-161325D01*
X372075Y-161325D01*
G37*
G54D22*
X288925Y-133350D02*
X295275Y-142875D01*
X295275Y-187325D01*
X346075Y-187325D01*
G54D23*
X514350Y-127000D02*
X514350Y-419100D01*
G54D17*
X590550Y-209550D02*
X622300Y-209550D01*
G36*
X489350Y-394100D02*
X539350Y-394100D01*
X539350Y-444100D01*
X489350Y-444100D01*
X489350Y-394100D01*
G37*
G54D24*
X114300Y-533400D02*
X114300Y-506733D01*
X124300Y-506733D01*
X128300Y-508400D01*
X130300Y-511733D01*
X130300Y-515067D01*
X128300Y-518400D01*
X124300Y-520067D01*
X114300Y-520067D01*
G54D24*
X139633Y-533400D02*
X139633Y-506733D01*
G54D24*
X156966Y-520067D02*
X162966Y-523400D01*
X164966Y-526733D01*
X164966Y-533400D01*
G54D24*
X148966Y-533400D02*
X148966Y-506733D01*
X158966Y-506733D01*
X162966Y-508400D01*
X164966Y-511733D01*
X164966Y-515067D01*
X162966Y-518400D01*
X158966Y-520067D01*
X148966Y-520067D01*
G54D24*
X174299Y-533400D02*
X194299Y-533400D01*
G54D24*
X219632Y-528400D02*
X217632Y-531733D01*
X213632Y-533400D01*
X209632Y-533400D01*
X205632Y-531733D01*
X203632Y-528400D01*
X203632Y-511733D01*
X205632Y-508400D01*
X209632Y-506733D01*
X213632Y-506733D01*
X217632Y-508400D01*
X219632Y-511733D01*
G54D24*
X236965Y-533400D02*
X236965Y-506733D01*
G54D24*
X228965Y-506733D02*
X244965Y-506733D01*
G54D24*
X262298Y-520067D02*
X268298Y-523400D01*
X270298Y-526733D01*
X270298Y-533400D01*
G54D24*
X254298Y-533400D02*
X254298Y-506733D01*
X264298Y-506733D01*
X268298Y-508400D01*
X270298Y-511733D01*
X270298Y-515067D01*
X268298Y-518400D01*
X264298Y-520067D01*
X254298Y-520067D01*
G54D24*
X279631Y-506733D02*
X279631Y-533400D01*
X293631Y-533400D01*
G36*
X304800Y-495300D02*
X304800Y-546100D01*
X101600Y-546100D01*
X101600Y-495300D01*
X304800Y-495300D01*
G37*
G54D25*
X304800Y-495300D02*
X304800Y-546100D01*
X101600Y-546100D01*
X101600Y-495300D01*
X304800Y-495300D01*
G54D21*
X539750Y-209550D02*
X514350Y-209550D01*
X238125Y-279400D02*
G54D26*
D03*
X269875Y-279400D02*
G54D26*
D03*
X155575Y-406400D02*
G54D27*
D03*
X187325Y-406400D02*
G54D27*
D03*
X155575Y-431800D02*
G54D26*
D03*
X187325Y-431800D02*
G54D26*
D03*
X155575Y-457200D02*
G54D27*
D03*
X187325Y-457200D02*
G54D27*
D03*
G36*
X165100Y-393700D02*
X177800Y-393700D01*
X177800Y-469900D01*
X165100Y-469900D01*
X165100Y-393700D01*
G37*
G54D28*
X165100Y-393700D02*
X177800Y-393700D01*
X177800Y-469900D01*
X165100Y-469900D01*
X165100Y-393700D01*
X79375Y-419100D02*
G54D29*
D03*
X111125Y-419100D02*
G54D29*
D03*
X133350Y-381000D02*
G54D30*
D03*
X120650Y-381000D02*
G54D31*
D03*
X107950Y-381000D02*
G54D31*
D03*
X95250Y-381000D02*
G54D31*
D03*
X133350Y-317500D02*
G54D31*
D03*
X120650Y-317500D02*
G54D31*
D03*
X107950Y-317500D02*
G54D31*
D03*
X95250Y-317500D02*
G54D31*
D03*
G54D32*
X151049Y-317979D02*
X147715Y-321313D01*
X147715Y-312424D01*
X92075Y-263525D02*
G54D33*
D03*
X92075Y-298525D02*
G54D33*
D03*
X69850Y-282575D02*
G54D34*
D03*
X69850Y-314325D02*
G54D35*
D03*
X44450Y-323850D02*
G54D16*
D03*
X44450Y-298450D02*
G54D16*
D03*
X44450Y-349250D02*
G54D16*
D03*
X44450Y-374650D02*
G54D16*
D03*
X44450Y-400050D02*
G54D16*
D03*
X44450Y-425450D02*
G54D16*
D03*
X53975Y-457200D02*
G54D16*
D03*
X28575Y-457200D02*
G54D16*
D03*
G54D12*
X73708Y-22175D02*
X68375Y-22175D01*
X68375Y-21619D01*
X69042Y-20508D01*
X73042Y-17175D01*
X73708Y-16064D01*
X73708Y-14953D01*
X73042Y-13842D01*
X71708Y-13286D01*
X70375Y-13286D01*
X69042Y-13842D01*
X68375Y-14953D01*
X241300Y-117475D02*
G54D35*
D03*
G36*
X368700Y-442600D02*
X418700Y-442600D01*
X418700Y-522600D01*
X368700Y-522600D01*
X368700Y-442600D01*
G37*
G36*
X330600Y-442600D02*
X380600Y-442600D01*
X380600Y-522600D01*
X330600Y-522600D01*
X330600Y-442600D01*
G37*
X158750Y-339725D02*
G54D36*
D03*
X158750Y-374650D02*
G54D37*
D03*
%LPD*%
X36512Y-38100D02*
G54D38*
D03*
X36512Y-528638D02*
G54D38*
D03*
X616512Y-38100D02*
G54D38*
D03*
X617538Y-528638D02*
G54D38*
D03*
G36*
X75725Y-40800D02*
X95725Y-40800D01*
X95725Y-60800D01*
X75725Y-60800D01*
X75725Y-40800D01*
G37*
X111125Y-50800D02*
G54D39*
D03*
X136525Y-50800D02*
G54D39*
D03*
X161925Y-50800D02*
G54D39*
D03*
X187325Y-50800D02*
G54D39*
D03*
X212725Y-50800D02*
G54D39*
D03*
X238125Y-50800D02*
G54D39*
D03*
X263525Y-50800D02*
G54D39*
D03*
X288925Y-50800D02*
G54D39*
D03*
X314325Y-50800D02*
G54D39*
D03*
X339725Y-50800D02*
G54D39*
D03*
X365125Y-50800D02*
G54D39*
D03*
X390525Y-50800D02*
G54D39*
D03*
X415925Y-50800D02*
G54D39*
D03*
X441325Y-50800D02*
G54D39*
D03*
X466725Y-50800D02*
G54D39*
D03*
X492125Y-50800D02*
G54D39*
D03*
X517525Y-50800D02*
G54D39*
D03*
X542925Y-50800D02*
G54D39*
D03*
X568325Y-50800D02*
G54D39*
D03*
X85725Y-25400D02*
G54D39*
D03*
X111125Y-25400D02*
G54D39*
D03*
X136525Y-25400D02*
G54D39*
D03*
X161925Y-25400D02*
G54D39*
D03*
X187325Y-25400D02*
G54D39*
D03*
X212725Y-25400D02*
G54D39*
D03*
X238125Y-25400D02*
G54D39*
D03*
X263525Y-25400D02*
G54D39*
D03*
X288925Y-25400D02*
G54D39*
D03*
X314325Y-25400D02*
G54D39*
D03*
X339725Y-25400D02*
G54D39*
D03*
X365125Y-25400D02*
G54D39*
D03*
X390525Y-25400D02*
G54D39*
D03*
X415925Y-25400D02*
G54D39*
D03*
X441325Y-25400D02*
G54D39*
D03*
X466725Y-25400D02*
G54D39*
D03*
X492125Y-25400D02*
G54D39*
D03*
X517525Y-25400D02*
G54D39*
D03*
X542925Y-25400D02*
G54D39*
D03*
X568325Y-25400D02*
G54D39*
D03*
G54D40*
X68375Y-57894D02*
X71708Y-54561D01*
X71708Y-63450D01*
G36*
X410000Y-370000D02*
X430000Y-370000D01*
X430000Y-390000D01*
X410000Y-390000D01*
X410000Y-370000D01*
G37*
G36*
X580550Y-199550D02*
X600550Y-199550D01*
X600550Y-219550D01*
X580550Y-219550D01*
X580550Y-199550D01*
G37*
G36*
X555150Y-199550D02*
X575150Y-199550D01*
X575150Y-219550D01*
X555150Y-219550D01*
X555150Y-199550D01*
G37*
G36*
X529750Y-199550D02*
X549750Y-199550D01*
X549750Y-219550D01*
X529750Y-219550D01*
X529750Y-199550D01*
G37*
X445000Y-380000D02*
G54D39*
D03*
G36*
X580150Y-142000D02*
X550150Y-142000D01*
X550150Y-112000D01*
X580150Y-112000D01*
X580150Y-142000D01*
G37*
G36*
X529350Y-142000D02*
X499350Y-142000D01*
X499350Y-112000D01*
X529350Y-112000D01*
X529350Y-142000D01*
G37*
G36*
X205900Y-300650D02*
X211750Y-294800D01*
X220050Y-294800D01*
X225900Y-300650D01*
X225900Y-308950D01*
X220050Y-314800D01*
X211750Y-314800D01*
X205900Y-308950D01*
X205900Y-300650D01*
G37*
G36*
X205900Y-351450D02*
X211750Y-345600D01*
X220050Y-345600D01*
X225900Y-351450D01*
X225900Y-359750D01*
X220050Y-365600D01*
X211750Y-365600D01*
X205900Y-359750D01*
X205900Y-351450D01*
G37*
G36*
X205900Y-376850D02*
X211750Y-371000D01*
X220050Y-371000D01*
X225900Y-376850D01*
X225900Y-385150D01*
X220050Y-391000D01*
X211750Y-391000D01*
X205900Y-385150D01*
X205900Y-376850D01*
G37*
G36*
X205900Y-402250D02*
X211750Y-396400D01*
X220050Y-396400D01*
X225900Y-402250D01*
X225900Y-410550D01*
X220050Y-416400D01*
X211750Y-416400D01*
X205900Y-410550D01*
X205900Y-402250D01*
G37*
G36*
X205900Y-427650D02*
X211750Y-421800D01*
X220050Y-421800D01*
X225900Y-427650D01*
X225900Y-435950D01*
X220050Y-441800D01*
X211750Y-441800D01*
X205900Y-435950D01*
X205900Y-427650D01*
G37*
G36*
X205900Y-453050D02*
X211750Y-447200D01*
X220050Y-447200D01*
X225900Y-453050D01*
X225900Y-461350D01*
X220050Y-467200D01*
X211750Y-467200D01*
X205900Y-461350D01*
X205900Y-453050D01*
G37*
G36*
X205900Y-269400D02*
X225900Y-269400D01*
X225900Y-289400D01*
X205900Y-289400D01*
X205900Y-269400D01*
G37*
G36*
X205900Y-326050D02*
X211750Y-320200D01*
X220050Y-320200D01*
X225900Y-326050D01*
X225900Y-334350D01*
X220050Y-340200D01*
X211750Y-340200D01*
X205900Y-334350D01*
X205900Y-326050D01*
G37*
G54D41*
X120650Y-317500D02*
X120650Y-279400D01*
X215900Y-279400D01*
G54D41*
X107950Y-317500D02*
X107950Y-260350D01*
X254000Y-260350D01*
X254000Y-304800D01*
X215900Y-304800D01*
G54D41*
X95250Y-317500D02*
X95250Y-298450D01*
X44450Y-298450D01*
G54D41*
X133350Y-317500D02*
X133350Y-336550D01*
X79375Y-336550D01*
G54D41*
X215900Y-355600D02*
X190500Y-355600D01*
X171450Y-336550D01*
X133350Y-336550D01*
G54D41*
X215900Y-381000D02*
X133350Y-381000D01*
G54D41*
X133350Y-381000D02*
X133350Y-349250D01*
X44450Y-349250D01*
G54D41*
X120650Y-381000D02*
X120650Y-400050D01*
X127000Y-406400D01*
X152400Y-406400D01*
G54D41*
X120650Y-381000D02*
X120650Y-361950D01*
X79375Y-361950D01*
X79375Y-374650D01*
X44450Y-374650D01*
G54D41*
X107950Y-381000D02*
X107950Y-412750D01*
X127000Y-431800D01*
X155575Y-431800D01*
G54D41*
X44450Y-400050D02*
X79375Y-400050D01*
X79375Y-419100D01*
G54D41*
X187325Y-431800D02*
X215900Y-431800D01*
G54D41*
X187325Y-457200D02*
X215900Y-457200D01*
G54D41*
X69850Y-282575D02*
X69850Y-263525D01*
X95250Y-263525D01*
G54D41*
X95250Y-381000D02*
X95250Y-457200D01*
G54D41*
X184150Y-406400D02*
X215900Y-406400D01*
G54D42*
X157554Y-297117D02*
X158088Y-298006D01*
X159154Y-298450D01*
X160221Y-298450D01*
X161288Y-298006D01*
X161821Y-297117D01*
X161821Y-294895D01*
X161821Y-294450D01*
X160221Y-295339D01*
X159154Y-295339D01*
X158088Y-294895D01*
X157554Y-294006D01*
X157554Y-292672D01*
X158088Y-291783D01*
X159154Y-291339D01*
X160221Y-291339D01*
X161288Y-291783D01*
X161821Y-292672D01*
X161821Y-294895D01*
G54D42*
X155065Y-298450D02*
X150798Y-298450D01*
X151332Y-297561D01*
X152398Y-296228D01*
X153465Y-294450D01*
X153998Y-293117D01*
X153998Y-291339D01*
G54D42*
X144042Y-298450D02*
X148309Y-298450D01*
X148309Y-295339D01*
X147776Y-295339D01*
X146709Y-295783D01*
X145642Y-295783D01*
X144576Y-295339D01*
X144042Y-294450D01*
X144042Y-292672D01*
X144576Y-291783D01*
X145642Y-291339D01*
X146709Y-291339D01*
X147776Y-291783D01*
X148309Y-292672D01*
G54D42*
X138353Y-295339D02*
X138353Y-291339D01*
G54D42*
X138353Y-292228D02*
X138886Y-291517D01*
X139953Y-291339D01*
X141020Y-291517D01*
X141553Y-292228D01*
X141553Y-295339D01*
G54D42*
X135864Y-291339D02*
X135864Y-295339D01*
G54D42*
X135864Y-294450D02*
X135331Y-295072D01*
X134264Y-295339D01*
X133197Y-295072D01*
X132664Y-294450D01*
X132664Y-291339D01*
G54D42*
X130175Y-291339D02*
X130175Y-295339D01*
G54D42*
X130175Y-296672D02*
X130175Y-296672D01*
G54D41*
X44450Y-323850D02*
X79375Y-323850D01*
X79375Y-336550D01*
X177800Y-304800D02*
G54D39*
D03*
G54D43*
X215900Y-330200D02*
X190500Y-330200D01*
X177800Y-317500D01*
X177800Y-304800D01*
G54D44*
X323850Y-431800D02*
X393700Y-431800D01*
G54D45*
X444500Y-381000D02*
X444500Y-431800D01*
X469900Y-450850D01*
X469900Y-482600D01*
X514350Y-482600D01*
X514350Y-546100D01*
X355600Y-546100D01*
X355600Y-485775D01*
G54D43*
X215900Y-381000D02*
X254000Y-381000D01*
X254000Y-482600D01*
X355600Y-482600D01*
X355600Y-431800D02*
G54D46*
D03*
X342900Y-431800D02*
G54D46*
D03*
X330200Y-431800D02*
G54D46*
D03*
X317500Y-431800D02*
G54D46*
D03*
X355600Y-368300D02*
G54D46*
D03*
X342900Y-368300D02*
G54D46*
D03*
X330200Y-368300D02*
G54D46*
D03*
X317500Y-368300D02*
G54D46*
D03*
G54D47*
X355600Y-368300D02*
X330200Y-368300D01*
G54D47*
X355600Y-431800D02*
X317500Y-431800D01*
G54D44*
X336550Y-368300D02*
X381000Y-368300D01*
X393700Y-381000D01*
X419100Y-381000D01*
G54D41*
X317500Y-368300D02*
X304800Y-368300D01*
X304800Y-304800D01*
G54D48*
X390525Y-50800D02*
X390525Y-76200D01*
X390525Y-98425D01*
X390525Y-76200D02*
G54D39*
D03*
X263525Y-98425D02*
G54D39*
D03*
G54D48*
X263525Y-98425D02*
X390525Y-98425D01*
X390525Y-92075D01*
X561975Y-92075D01*
X200025Y-158750D02*
G54D39*
D03*
X200025Y-184150D02*
G54D39*
D03*
G54D41*
X155575Y-457200D02*
X53975Y-457200D01*
G54D41*
X161925Y-50800D02*
X161925Y-114300D01*
X241300Y-114300D01*
X241300Y-215900D01*
G54D43*
X342900Y-368300D02*
X342900Y-400050D01*
X279400Y-400050D01*
X279400Y-381000D01*
G54D43*
X215900Y-355600D02*
X279400Y-355600D01*
G54D43*
X200025Y-158750D02*
X19050Y-158750D01*
X19050Y-457200D01*
X28575Y-457200D01*
G54D41*
X241300Y-279400D02*
X215900Y-279400D01*
X279400Y-355600D02*
G54D39*
D03*
X279400Y-381000D02*
G54D39*
D03*
G54D41*
X269875Y-279400D02*
X304800Y-279400D01*
X304800Y-279400D02*
G54D39*
D03*
X304800Y-304800D02*
G54D39*
D03*
G54D41*
X44450Y-298450D02*
X44450Y-241300D01*
X69850Y-241300D02*
G54D39*
D03*
X44450Y-241300D02*
G54D39*
D03*
G54D48*
X69850Y-241300D02*
X69850Y-184150D01*
X200025Y-184150D01*
G54D41*
X200025Y-184150D02*
X203200Y-184150D01*
G54D45*
X346075Y-365125D02*
X346075Y-187325D01*
X288925Y-133350D02*
G54D39*
D03*
X200025Y-133350D02*
G54D39*
D03*
G54D48*
X200025Y-133350D02*
X219075Y-133350D01*
X219075Y-133350D02*
G54D39*
D03*
X241300Y-215900D02*
G54D39*
D03*
X241300Y-241300D02*
G54D39*
D03*
G54D41*
X241300Y-241300D02*
X241300Y-260350D01*
X263525Y-184150D02*
G54D39*
D03*
G54D48*
X187325Y-50800D02*
X187325Y-98425D01*
X263525Y-98425D01*
X263525Y-184150D01*
X219075Y-184150D02*
G54D39*
D03*
G54D48*
X200025Y-184150D02*
X219075Y-184150D01*
X111125Y-88900D02*
G54D39*
D03*
X85725Y-98425D02*
G54D39*
D03*
G54D43*
X60325Y-98425D02*
X60325Y-158750D01*
G54D43*
X111125Y-88900D02*
X111125Y-50800D01*
G54D43*
X136525Y-88900D02*
X136525Y-50800D01*
G54D45*
X393700Y-485775D02*
X393700Y-431800D01*
X622300Y-209550D02*
G54D39*
D03*
X136525Y-88900D02*
G54D39*
D03*
X85725Y-76200D02*
G54D39*
D03*
X212725Y-76200D02*
G54D39*
D03*
G54D43*
X212725Y-50800D02*
X212725Y-76200D01*
X60325Y-98425D02*
G54D39*
D03*
G54D43*
X85725Y-76200D02*
X85725Y-98425D01*
G36*
X361075Y-121525D02*
X361075Y-151525D01*
X331075Y-151525D01*
X331075Y-121525D01*
X361075Y-121525D01*
G37*
G36*
X361075Y-172325D02*
X361075Y-202325D01*
X331075Y-202325D01*
X331075Y-172325D01*
X361075Y-172325D01*
G37*
G54D48*
X288925Y-133350D02*
X295275Y-142875D01*
X295275Y-187325D01*
X346075Y-187325D01*
G54D45*
X346075Y-136525D02*
X346075Y-98425D01*
G54D45*
X514350Y-482600D02*
X584200Y-482600D01*
X584200Y-273050D01*
X565150Y-254000D01*
X565150Y-209550D01*
X565150Y-127000D01*
G54D17*
X514350Y-127000D02*
X514350Y-419100D01*
G54D43*
X590550Y-209550D02*
X622300Y-209550D01*
G54D45*
X561975Y-127000D02*
X561975Y-92075D01*
G36*
X499350Y-404100D02*
X529350Y-404100D01*
X529350Y-434100D01*
X499350Y-434100D01*
X499350Y-404100D01*
G37*
G36*
X454900Y-435850D02*
X484900Y-435850D01*
X484900Y-465850D01*
X454900Y-465850D01*
X454900Y-435850D01*
G37*
G36*
X499350Y-467600D02*
X529350Y-467600D01*
X529350Y-497600D01*
X499350Y-497600D01*
X499350Y-467600D01*
G37*
G54D49*
X114300Y-533400D02*
X114300Y-506733D01*
X124300Y-506733D01*
X128300Y-508400D01*
X130300Y-511733D01*
X130300Y-515067D01*
X128300Y-518400D01*
X124300Y-520067D01*
X114300Y-520067D01*
G54D49*
X139633Y-533400D02*
X139633Y-506733D01*
G54D49*
X156966Y-520067D02*
X162966Y-523400D01*
X164966Y-526733D01*
X164966Y-533400D01*
G54D49*
X148966Y-533400D02*
X148966Y-506733D01*
X158966Y-506733D01*
X162966Y-508400D01*
X164966Y-511733D01*
X164966Y-515067D01*
X162966Y-518400D01*
X158966Y-520067D01*
X148966Y-520067D01*
G54D49*
X174299Y-533400D02*
X194299Y-533400D01*
G54D49*
X219632Y-528400D02*
X217632Y-531733D01*
X213632Y-533400D01*
X209632Y-533400D01*
X205632Y-531733D01*
X203632Y-528400D01*
X203632Y-511733D01*
X205632Y-508400D01*
X209632Y-506733D01*
X213632Y-506733D01*
X217632Y-508400D01*
X219632Y-511733D01*
G54D49*
X236965Y-533400D02*
X236965Y-506733D01*
G54D49*
X228965Y-506733D02*
X244965Y-506733D01*
G54D49*
X262298Y-520067D02*
X268298Y-523400D01*
X270298Y-526733D01*
X270298Y-533400D01*
G54D49*
X254298Y-533400D02*
X254298Y-506733D01*
X264298Y-506733D01*
X268298Y-508400D01*
X270298Y-511733D01*
X270298Y-515067D01*
X268298Y-518400D01*
X264298Y-520067D01*
X254298Y-520067D01*
G54D49*
X279631Y-506733D02*
X279631Y-533400D01*
X293631Y-533400D01*
G54D45*
X539750Y-209550D02*
X514350Y-209550D01*
X238125Y-279400D02*
G54D50*
D03*
X269875Y-279400D02*
G54D50*
D03*
X155575Y-406400D02*
G54D50*
D03*
X187325Y-406400D02*
G54D50*
D03*
X155575Y-431800D02*
G54D50*
D03*
X187325Y-431800D02*
G54D50*
D03*
X155575Y-457200D02*
G54D50*
D03*
X187325Y-457200D02*
G54D50*
D03*
X79375Y-419100D02*
G54D50*
D03*
X111125Y-419100D02*
G54D50*
D03*
X133350Y-381000D02*
G54D51*
D03*
X120650Y-381000D02*
G54D51*
D03*
X107950Y-381000D02*
G54D51*
D03*
X95250Y-381000D02*
G54D51*
D03*
X133350Y-317500D02*
G54D51*
D03*
X120650Y-317500D02*
G54D51*
D03*
X107950Y-317500D02*
G54D51*
D03*
X95250Y-317500D02*
G54D51*
D03*
G54D40*
X151049Y-317979D02*
X147715Y-321313D01*
X147715Y-312424D01*
X92075Y-263525D02*
G54D52*
D03*
X92075Y-298525D02*
G54D52*
D03*
X69850Y-282575D02*
G54D53*
D03*
X69850Y-314325D02*
G54D53*
D03*
X44450Y-323850D02*
G54D39*
D03*
X44450Y-298450D02*
G54D39*
D03*
X44450Y-349250D02*
G54D39*
D03*
X44450Y-374650D02*
G54D39*
D03*
X44450Y-400050D02*
G54D39*
D03*
X44450Y-425450D02*
G54D39*
D03*
X53975Y-457200D02*
G54D39*
D03*
X28575Y-457200D02*
G54D39*
D03*
G54D40*
X73708Y-22175D02*
X68375Y-22175D01*
X68375Y-21619D01*
X69042Y-20508D01*
X73042Y-17175D01*
X73708Y-16064D01*
X73708Y-14953D01*
X73042Y-13842D01*
X71708Y-13286D01*
X70375Y-13286D01*
X69042Y-13842D01*
X68375Y-14953D01*
X241300Y-85725D02*
G54D53*
D03*
X241300Y-117475D02*
G54D53*
D03*
G54D43*
X241300Y-85725D02*
X241300Y-98425D01*
G36*
X378700Y-452600D02*
X408700Y-452600D01*
X408700Y-512600D01*
X378700Y-512600D01*
X378700Y-452600D01*
G37*
G36*
X340600Y-452600D02*
X370600Y-452600D01*
X370600Y-512600D01*
X340600Y-512600D01*
X340600Y-452600D01*
G37*
X158750Y-339725D02*
G54D53*
D03*
X158750Y-374650D02*
G54D53*
D03*
M02*
